<svg width="25" height="22" viewBox="0 0 25 22" fill="none" xmlns="http://www.w3.org/2000/svg">
<path d="M16.6319 17.9027C16.4052 17.5762 16.3618 17.2822 16.4262 16.9119L18.0355 7.65425C18.1643 6.91364 18.8108 6.4557 19.5441 6.58573C20.2773 6.71577 20.7308 7.36875 20.602 8.10937L18.9927 17.3671C18.8639 18.1077 18.2174 18.5656 17.4841 18.4356C17.1175 18.3706 16.8586 18.2292 16.6319 17.9027Z" fill="#707070"/>
<path d="M9.07622 7.01928C8.84951 6.69279 8.80613 6.39881 8.87051 6.0285C8.99925 5.28788 9.64577 4.82995 10.3791 4.95998L19.5451 6.58539C20.2784 6.71542 20.7318 7.3684 20.603 8.10902C20.4743 8.84963 19.8278 9.30757 19.0945 9.17754L9.92845 7.55213C9.5618 7.48711 9.30292 7.34578 9.07622 7.01928Z" fill="#707070"/>
<path d="M1.00069 20.8567C0.547282 20.2037 0.676027 19.4631 1.32255 19.0051L18.5631 6.7935C19.2096 6.33556 19.9429 6.4656 20.3963 7.11858C20.8497 7.77157 20.721 8.51218 20.0744 8.97012L2.83389 21.1818C2.18737 21.6397 1.45409 21.5097 1.00069 20.8567Z" fill="#707070"/>
</svg>
