<svg width="113" height="60" viewBox="0 0 113 60" fill="none" xmlns="http://www.w3.org/2000/svg">
<path d="M1.04492 32.2159V40.5161H6.31975V35.0294L56.2548 6.04927L106.964 35.0998V40.6567H111.957V31.7235L56.2548 0L1.04492 32.2159Z" fill="#0B6085"/>
<path d="M54.3348 25.9746H46.2148V34.0957H54.3348V25.9746Z" fill="#FFCC00" stroke="#F4C507"/>
<path d="M65.87 25.9746H57.75V34.0957H65.87V25.9746Z" fill="#FFCC00" stroke="#F4C507"/>
<path d="M60.229 15.7051C63.3445 15.7051 65.8701 18.2311 65.8701 21.347V23.8261H57.75V15.7051H60.229Z" fill="#FFCC00" stroke="#F4C507"/>
<path d="M51.8559 15.7051C48.7404 15.7051 46.2148 18.2311 46.2148 21.347V23.8261H54.3349V15.7051H51.8559Z" fill="#FFCC00" stroke="#F4C507"/>
<path d="M6.97073 51.5877C7.07817 51.7919 7.18025 52.0041 7.27695 52.2244C7.37903 52.4447 7.47573 52.6704 7.56706 52.9014C7.6584 52.665 7.7551 52.4366 7.85718 52.2163C7.95925 51.9907 8.06401 51.773 8.17146 51.5635L11.1854 45.6316C11.2391 45.5295 11.2928 45.4516 11.3466 45.3978C11.4057 45.3387 11.4701 45.2957 11.54 45.2689C11.6098 45.242 11.6877 45.2259 11.7737 45.2205C11.865 45.2151 11.9698 45.2125 12.088 45.2125H14.1671V56.9554H11.7656V50.2014C11.7656 49.8736 11.7817 49.519 11.814 49.1375L8.70333 55.1742C8.60663 55.3623 8.475 55.5047 8.30846 55.6014C8.14729 55.6981 7.96194 55.7465 7.75241 55.7465H7.38172C7.17219 55.7465 6.98416 55.6981 6.81761 55.6014C6.65644 55.5047 6.5275 55.3623 6.4308 55.1742L3.30405 49.1295C3.32554 49.3175 3.34165 49.5056 3.3524 49.6936C3.36314 49.8763 3.36852 50.0456 3.36852 50.2014V56.9554H0.967041V45.2125H3.04617C3.16436 45.2125 3.26644 45.2151 3.3524 45.2205C3.44373 45.2259 3.52432 45.242 3.59416 45.2689C3.664 45.2957 3.72578 45.3387 3.77951 45.3978C3.8386 45.4516 3.89501 45.5295 3.94874 45.6316L6.97073 51.5877ZM28.6639 51.0799C28.6639 51.9289 28.5161 52.7187 28.2206 53.4495C27.9305 54.1802 27.5195 54.8169 26.9877 55.3596C26.4558 55.8969 25.8138 56.3187 25.0617 56.625C24.3149 56.9313 23.4848 57.0844 22.5715 57.0844C21.6582 57.0844 20.8255 56.9313 20.0734 56.625C19.3212 56.3187 18.6765 55.8969 18.1393 55.3596C17.6074 54.8169 17.1937 54.1802 16.8982 53.4495C16.6081 52.7187 16.463 51.9289 16.463 51.0799C16.463 50.231 16.6081 49.4411 16.8982 48.7104C17.1937 47.9796 17.6074 47.3456 18.1393 46.8083C18.6765 46.271 19.3212 45.8492 20.0734 45.5429C20.8255 45.2366 21.6582 45.0835 22.5715 45.0835C23.4848 45.0835 24.3149 45.2393 25.0617 45.551C25.8138 45.8572 26.4558 46.279 26.9877 46.8163C27.5195 47.3536 27.9305 47.9877 28.2206 48.7184C28.5161 49.4492 28.6639 50.2363 28.6639 51.0799ZM25.8756 51.0799C25.8756 50.4996 25.8004 49.9784 25.6499 49.5163C25.4995 49.0489 25.2819 48.6539 24.9972 48.3316C24.7178 48.0092 24.374 47.762 23.9657 47.5901C23.5574 47.4181 23.0927 47.3322 22.5715 47.3322C22.045 47.3322 21.5749 47.4181 21.1613 47.5901C20.753 47.762 20.4064 48.0092 20.1217 48.3316C19.8423 48.6539 19.6274 49.0489 19.477 49.5163C19.3266 49.9784 19.2514 50.4996 19.2514 51.0799C19.2514 51.6656 19.3266 52.1922 19.477 52.6596C19.6274 53.1217 19.8423 53.5139 20.1217 53.8363C20.4064 54.1587 20.753 54.4059 21.1613 54.5778C21.5749 54.7444 22.045 54.8277 22.5715 54.8277C23.0927 54.8277 23.5574 54.7444 23.9657 54.5778C24.374 54.4059 24.7178 54.1587 24.9972 53.8363C25.2819 53.5139 25.4995 53.1217 25.6499 52.6596C25.8004 52.1922 25.8756 51.6656 25.8756 51.0799ZM42.5215 51.0799C42.5215 51.9289 42.3738 52.7187 42.0783 53.4495C41.7882 54.1802 41.3772 54.8169 40.8453 55.3596C40.3134 55.8969 39.6714 56.3187 38.9193 56.625C38.1725 56.9313 37.3425 57.0844 36.4292 57.0844C35.5159 57.0844 34.6831 56.9313 33.931 56.625C33.1788 56.3187 32.5342 55.8969 31.9969 55.3596C31.465 54.8169 31.0514 54.1802 30.7559 53.4495C30.4658 52.7187 30.3207 51.9289 30.3207 51.0799C30.3207 50.231 30.4658 49.4411 30.7559 48.7104C31.0514 47.9796 31.465 47.3456 31.9969 46.8083C32.5342 46.271 33.1788 45.8492 33.931 45.5429C34.6831 45.2366 35.5159 45.0835 36.4292 45.0835C37.3425 45.0835 38.1725 45.2393 38.9193 45.551C39.6714 45.8572 40.3134 46.279 40.8453 46.8163C41.3772 47.3536 41.7882 47.9877 42.0783 48.7184C42.3738 49.4492 42.5215 50.2363 42.5215 51.0799ZM39.7332 51.0799C39.7332 50.4996 39.658 49.9784 39.5076 49.5163C39.3571 49.0489 39.1396 48.6539 38.8548 48.3316C38.5755 48.0092 38.2316 47.762 37.8233 47.5901C37.415 47.4181 36.9503 47.3322 36.4292 47.3322C35.9027 47.3322 35.4326 47.4181 35.0189 47.5901C34.6106 47.762 34.2641 48.0092 33.9793 48.3316C33.7 48.6539 33.4851 49.0489 33.3346 49.5163C33.1842 49.9784 33.109 50.4996 33.109 51.0799C33.109 51.6656 33.1842 52.1922 33.3346 52.6596C33.4851 53.1217 33.7 53.5139 33.9793 53.8363C34.2641 54.1587 34.6106 54.4059 35.0189 54.5778C35.4326 54.7444 35.9027 54.8277 36.4292 54.8277C36.9503 54.8277 37.415 54.7444 37.8233 54.5778C38.2316 54.4059 38.5755 54.1587 38.8548 53.8363C39.1396 53.5139 39.3571 53.1217 39.5076 52.6596C39.658 52.1922 39.7332 51.6656 39.7332 51.0799ZM46.2254 45.2125C46.3436 45.2125 46.443 45.2178 46.5236 45.2286C46.6042 45.2393 46.6767 45.2608 46.7412 45.293C46.8056 45.3199 46.8674 45.3602 46.9265 45.4139C46.9856 45.4677 47.0528 45.5402 47.128 45.6316L52.7046 52.6838C52.6831 52.4581 52.667 52.2405 52.6562 52.031C52.6455 51.816 52.6401 51.6145 52.6401 51.4265V45.2125H55.0416V56.9554H53.6233C53.4137 56.9554 53.2364 56.9232 53.0914 56.8587C52.9463 56.7942 52.8066 56.676 52.6723 56.5041L47.1361 49.5083C47.1522 49.7125 47.1656 49.9139 47.1763 50.1128C47.1871 50.3062 47.1925 50.4889 47.1925 50.6608V56.9554H44.791V45.2125H46.2254ZM64.484 47.5981C64.4034 47.7271 64.3174 47.8238 64.2261 47.8883C64.1401 47.9528 64.0273 47.985 63.8876 47.985C63.7641 47.985 63.6297 47.9474 63.4847 47.8722C63.345 47.7916 63.1838 47.7029 63.0012 47.6062C62.8239 47.5095 62.6197 47.4235 62.3887 47.3483C62.1577 47.2677 61.8945 47.2274 61.599 47.2274C61.0886 47.2274 60.7072 47.3375 60.4547 47.5578C60.2075 47.7728 60.084 48.0656 60.084 48.4363C60.084 48.6727 60.1592 48.8689 60.3096 49.0247C60.46 49.1805 60.6561 49.3148 60.8979 49.4277C61.145 49.5405 61.4244 49.6453 61.736 49.742C62.0529 49.8333 62.3753 49.9381 62.703 50.0563C63.0307 50.1692 63.3504 50.3035 63.662 50.4593C63.979 50.6151 64.2583 50.8139 64.5001 51.0557C64.7472 51.2975 64.946 51.5931 65.0964 51.9423C65.2468 52.2862 65.3221 52.7026 65.3221 53.1916C65.3221 53.7342 65.2281 54.242 65.04 54.7148C64.852 55.1877 64.578 55.6014 64.218 55.956C63.8635 56.3053 63.4229 56.582 62.8964 56.7862C62.3753 56.985 61.7816 57.0844 61.1155 57.0844C60.7501 57.0844 60.3768 57.0468 59.9953 56.9716C59.6192 56.8963 59.2539 56.7916 58.8993 56.6572C58.5448 56.5175 58.2117 56.3536 57.9001 56.1656C57.5885 55.9775 57.3172 55.768 57.0861 55.5369L57.892 54.2635C57.9511 54.1668 58.0344 54.0889 58.1418 54.0298C58.2493 53.9707 58.3648 53.9411 58.4883 53.9411C58.6495 53.9411 58.8107 53.9922 58.9719 54.0942C59.1384 54.1963 59.3238 54.3092 59.5279 54.4328C59.7374 54.5563 59.9765 54.6692 60.2451 54.7713C60.5137 54.8733 60.8307 54.9244 61.196 54.9244C61.6903 54.9244 62.0744 54.8169 62.3484 54.602C62.6224 54.3817 62.7594 54.0351 62.7594 53.5623C62.7594 53.2883 62.6842 53.0653 62.5338 52.8933C62.3833 52.7214 62.1846 52.579 61.9374 52.4662C61.6957 52.3533 61.419 52.2539 61.1074 52.168C60.7958 52.082 60.4761 51.988 60.1484 51.8859C59.8207 51.7784 59.501 51.6495 59.1894 51.499C58.8778 51.3432 58.5985 51.1417 58.3513 50.8945C58.1096 50.642 57.9135 50.3304 57.7631 49.9596C57.6126 49.5835 57.5374 49.1214 57.5374 48.5733C57.5374 48.1328 57.6261 47.7029 57.8034 47.2838C57.9807 46.8647 58.2412 46.4913 58.585 46.1635C58.9289 45.8357 59.3506 45.5751 59.8503 45.3817C60.3499 45.1829 60.9221 45.0835 61.5667 45.0835C61.9267 45.0835 62.2759 45.1131 62.6144 45.1722C62.9582 45.2259 63.2832 45.3092 63.5895 45.422C63.8957 45.5295 64.1804 45.6611 64.4437 45.8169C64.7123 45.9674 64.9514 46.1393 65.1609 46.3328L64.484 47.5981ZM76.1688 45.2125V47.3725H72.8648V56.9554H70.141V47.3725H66.8369V45.2125H76.1688ZM89.3587 51.0799C89.3587 51.9289 89.2109 52.7187 88.9154 53.4495C88.6253 54.1802 88.2143 54.8169 87.6825 55.3596C87.1506 55.8969 86.5086 56.3187 85.7564 56.625C85.0097 56.9313 84.1796 57.0844 83.2663 57.0844C82.353 57.0844 81.5203 56.9313 80.7682 56.625C80.016 56.3187 79.3713 55.8969 78.8341 55.3596C78.3022 54.8169 77.8885 54.1802 77.593 53.4495C77.3029 52.7187 77.1579 51.9289 77.1579 51.0799C77.1579 50.231 77.3029 49.4411 77.593 48.7104C77.8885 47.9796 78.3022 47.3456 78.8341 46.8083C79.3713 46.271 80.016 45.8492 80.7682 45.5429C81.5203 45.2366 82.353 45.0835 83.2663 45.0835C84.1796 45.0835 85.0097 45.2393 85.7564 45.551C86.5086 45.8572 87.1506 46.279 87.6825 46.8163C88.2143 47.3536 88.6253 47.9877 88.9154 48.7184C89.2109 49.4492 89.3587 50.2363 89.3587 51.0799ZM86.5704 51.0799C86.5704 50.4996 86.4951 49.9784 86.3447 49.5163C86.1943 49.0489 85.9767 48.6539 85.692 48.3316C85.4126 48.0092 85.0688 47.762 84.6605 47.5901C84.2522 47.4181 83.7874 47.3322 83.2663 47.3322C82.7398 47.3322 82.2697 47.4181 81.8561 47.5901C81.4478 47.762 81.1012 48.0092 80.8165 48.3316C80.5371 48.6539 80.3222 49.0489 80.1718 49.5163C80.0214 49.9784 79.9462 50.4996 79.9462 51.0799C79.9462 51.6656 80.0214 52.1922 80.1718 52.6596C80.3222 53.1217 80.5371 53.5139 80.8165 53.8363C81.1012 54.1587 81.4478 54.4059 81.8561 54.5778C82.2697 54.7444 82.7398 54.8277 83.2663 54.8277C83.7874 54.8277 84.2522 54.7444 84.6605 54.5778C85.0688 54.4059 85.4126 54.1587 85.692 53.8363C85.9767 53.5139 86.1943 53.1217 86.3447 52.6596C86.4951 52.1922 86.5704 51.6656 86.5704 51.0799ZM93.0624 45.2125C93.1806 45.2125 93.28 45.2178 93.3606 45.2286C93.4411 45.2393 93.5137 45.2608 93.5781 45.293C93.6426 45.3199 93.7044 45.3602 93.7635 45.4139C93.8226 45.4677 93.8897 45.5402 93.965 45.6316L99.5415 52.6838C99.5201 52.4581 99.5039 52.2405 99.4932 52.031C99.4825 51.816 99.4771 51.6145 99.4771 51.4265V45.2125H101.879V56.9554H100.46C100.251 56.9554 100.073 56.9232 99.9284 56.8587C99.7833 56.7942 99.6436 56.676 99.5093 56.5041L93.973 49.5083C93.9891 49.7125 94.0026 49.9139 94.0133 50.1128C94.0241 50.3062 94.0294 50.4889 94.0294 50.6608V56.9554H91.628V45.2125H93.0624ZM112.336 45.2125V47.308H107.517V50.0483H111.208V52.0632H107.517V54.8599H112.336V56.9554H104.777V45.2125H112.336Z" fill="white"/>
</svg>
