<svg width="113" height="61" viewBox="0 0 113 61" fill="none" xmlns="http://www.w3.org/2000/svg">
<g clip-path="url(#clip0_94_3947)">
<path d="M1.04492 32.442V40.7422H6.31975V35.2555L56.2548 6.27535L106.964 35.3259V40.8828H111.957V31.9496L56.2548 0.226074L1.04492 32.442Z" fill="white"/>
<path d="M54.3348 26.2007H46.2148V34.3217H54.3348V26.2007Z" fill="#FFCC00" stroke="#F4C507"/>
<path d="M65.87 26.2007H57.75V34.3217H65.87V26.2007Z" fill="#FFCC00" stroke="#F4C507"/>
<path d="M60.229 15.9312C63.3445 15.9312 65.8701 18.4572 65.8701 21.573V24.0522H57.75V15.9312H60.229Z" fill="#FFCC00" stroke="#F4C507"/>
<path d="M51.8559 15.9312C48.7404 15.9312 46.2148 18.4572 46.2148 21.573V24.0522H54.3349V15.9312H51.8559Z" fill="#FFCC00" stroke="#F4C507"/>
<path d="M6.97073 51.8135C7.07817 52.0177 7.18025 52.2299 7.27695 52.4502C7.37903 52.6705 7.47573 52.8962 7.56706 53.1272C7.6584 52.8908 7.7551 52.6625 7.85718 52.4422C7.95925 52.2165 8.06401 51.9989 8.17146 51.7893L11.1854 45.8574C11.2391 45.7553 11.2928 45.6774 11.3466 45.6237C11.4057 45.5646 11.4701 45.5216 11.54 45.4947C11.6098 45.4678 11.6877 45.4517 11.7737 45.4463C11.865 45.441 11.9698 45.4383 12.088 45.4383H14.1671V57.1813H11.7656V50.4272C11.7656 50.0995 11.7817 49.7449 11.814 49.3634L8.70333 55.4001C8.60663 55.5881 8.475 55.7305 8.30846 55.8272C8.14729 55.924 7.96194 55.9723 7.75241 55.9723H7.38172C7.17219 55.9723 6.98416 55.924 6.81761 55.8272C6.65644 55.7305 6.5275 55.5881 6.4308 55.4001L3.30405 49.3553C3.32554 49.5434 3.34165 49.7314 3.3524 49.9195C3.36314 50.1022 3.36852 50.2714 3.36852 50.4272V57.1813H0.967041V45.4383H3.04617C3.16436 45.4383 3.26644 45.441 3.3524 45.4463C3.44373 45.4517 3.52432 45.4678 3.59416 45.4947C3.664 45.5216 3.72578 45.5646 3.77951 45.6237C3.8386 45.6774 3.89501 45.7553 3.94874 45.8574L6.97073 51.8135ZM28.6639 51.3057C28.6639 52.1547 28.5161 52.9445 28.2206 53.6753C27.9305 54.406 27.5195 55.0428 26.9877 55.5854C26.4558 56.1228 25.8138 56.5446 25.0617 56.8508C24.3149 57.1571 23.4848 57.3102 22.5715 57.3102C21.6582 57.3102 20.8255 57.1571 20.0734 56.8508C19.3212 56.5446 18.6765 56.1228 18.1393 55.5854C17.6074 55.0428 17.1937 54.406 16.8982 53.6753C16.6081 52.9445 16.463 52.1547 16.463 51.3057C16.463 50.4568 16.6081 49.6669 16.8982 48.9362C17.1937 48.2054 17.6074 47.5714 18.1393 47.0341C18.6765 46.4968 19.3212 46.075 20.0734 45.7687C20.8255 45.4625 21.6582 45.3093 22.5715 45.3093C23.4848 45.3093 24.3149 45.4651 25.0617 45.7768C25.8138 46.0831 26.4558 46.5049 26.9877 47.0422C27.5195 47.5795 27.9305 48.2135 28.2206 48.9443C28.5161 49.675 28.6639 50.4622 28.6639 51.3057ZM25.8756 51.3057C25.8756 50.7254 25.8004 50.2043 25.6499 49.7422C25.4995 49.2747 25.2819 48.8798 24.9972 48.5574C24.7178 48.235 24.374 47.9878 23.9657 47.8159C23.5574 47.644 23.0927 47.558 22.5715 47.558C22.045 47.558 21.5749 47.644 21.1613 47.8159C20.753 47.9878 20.4064 48.235 20.1217 48.5574C19.8423 48.8798 19.6274 49.2747 19.477 49.7422C19.3266 50.2043 19.2514 50.7254 19.2514 51.3057C19.2514 51.8914 19.3266 52.418 19.477 52.8854C19.6274 53.3475 19.8423 53.7398 20.1217 54.0622C20.4064 54.3845 20.753 54.6317 21.1613 54.8037C21.5749 54.9702 22.045 55.0535 22.5715 55.0535C23.0927 55.0535 23.5574 54.9702 23.9657 54.8037C24.374 54.6317 24.7178 54.3845 24.9972 54.0622C25.2819 53.7398 25.4995 53.3475 25.6499 52.8854C25.8004 52.418 25.8756 51.8914 25.8756 51.3057ZM42.5215 51.3057C42.5215 52.1547 42.3738 52.9445 42.0783 53.6753C41.7882 54.406 41.3772 55.0428 40.8453 55.5854C40.3134 56.1228 39.6714 56.5446 38.9193 56.8508C38.1725 57.1571 37.3425 57.3102 36.4292 57.3102C35.5159 57.3102 34.6831 57.1571 33.931 56.8508C33.1788 56.5446 32.5342 56.1228 31.9969 55.5854C31.465 55.0428 31.0514 54.406 30.7559 53.6753C30.4658 52.9445 30.3207 52.1547 30.3207 51.3057C30.3207 50.4568 30.4658 49.6669 30.7559 48.9362C31.0514 48.2054 31.465 47.5714 31.9969 47.0341C32.5342 46.4968 33.1788 46.075 33.931 45.7687C34.6831 45.4625 35.5159 45.3093 36.4292 45.3093C37.3425 45.3093 38.1725 45.4651 38.9193 45.7768C39.6714 46.0831 40.3134 46.5049 40.8453 47.0422C41.3772 47.5795 41.7882 48.2135 42.0783 48.9443C42.3738 49.675 42.5215 50.4622 42.5215 51.3057ZM39.7332 51.3057C39.7332 50.7254 39.658 50.2043 39.5076 49.7422C39.3571 49.2747 39.1396 48.8798 38.8548 48.5574C38.5755 48.235 38.2316 47.9878 37.8233 47.8159C37.415 47.644 36.9503 47.558 36.4292 47.558C35.9027 47.558 35.4326 47.644 35.0189 47.8159C34.6106 47.9878 34.2641 48.235 33.9793 48.5574C33.7 48.8798 33.4851 49.2747 33.3346 49.7422C33.1842 50.2043 33.109 50.7254 33.109 51.3057C33.109 51.8914 33.1842 52.418 33.3346 52.8854C33.4851 53.3475 33.7 53.7398 33.9793 54.0622C34.2641 54.3845 34.6106 54.6317 35.0189 54.8037C35.4326 54.9702 35.9027 55.0535 36.4292 55.0535C36.9503 55.0535 37.415 54.9702 37.8233 54.8037C38.2316 54.6317 38.5755 54.3845 38.8548 54.0622C39.1396 53.7398 39.3571 53.3475 39.5076 52.8854C39.658 52.418 39.7332 51.8914 39.7332 51.3057ZM46.2254 45.4383C46.3436 45.4383 46.443 45.4437 46.5236 45.4544C46.6042 45.4651 46.6767 45.4866 46.7412 45.5189C46.8056 45.5457 46.8674 45.586 46.9265 45.6398C46.9856 45.6935 47.0528 45.766 47.128 45.8574L52.7046 52.9096C52.6831 52.684 52.667 52.4663 52.6562 52.2568C52.6455 52.0419 52.6401 51.8404 52.6401 51.6523V45.4383H55.0416V57.1813H53.6233C53.4137 57.1813 53.2364 57.149 53.0914 57.0845C52.9463 57.0201 52.8066 56.9019 52.6723 56.7299L47.1361 49.7341C47.1522 49.9383 47.1656 50.1398 47.1763 50.3386C47.1871 50.532 47.1925 50.7147 47.1925 50.8866V57.1813H44.791V45.4383H46.2254ZM64.484 47.824C64.4034 47.9529 64.3174 48.0496 64.2261 48.1141C64.1401 48.1786 64.0273 48.2108 63.8876 48.2108C63.7641 48.2108 63.6297 48.1732 63.4847 48.098C63.345 48.0174 63.1838 47.9287 63.0012 47.832C62.8239 47.7353 62.6197 47.6493 62.3887 47.5741C62.1577 47.4935 61.8945 47.4532 61.599 47.4532C61.0886 47.4532 60.7072 47.5634 60.4547 47.7837C60.2075 47.9986 60.084 48.2914 60.084 48.6622C60.084 48.8986 60.1592 49.0947 60.3096 49.2505C60.46 49.4063 60.6561 49.5407 60.8979 49.6535C61.145 49.7663 61.4244 49.8711 61.736 49.9678C62.0529 50.0592 62.3753 50.164 62.703 50.2822C63.0307 50.395 63.3504 50.5293 63.662 50.6851C63.979 50.841 64.2583 51.0398 64.5001 51.2816C64.7472 51.5234 64.946 51.8189 65.0964 52.1681C65.2468 52.512 65.3221 52.9284 65.3221 53.4174C65.3221 53.9601 65.2281 54.4678 65.04 54.9407C64.852 55.4135 64.578 55.8272 64.218 56.1819C63.8635 56.5311 63.4229 56.8078 62.8964 57.012C62.3753 57.2108 61.7816 57.3102 61.1155 57.3102C60.7501 57.3102 60.3768 57.2726 59.9953 57.1974C59.6192 57.1222 59.2539 57.0174 58.8993 56.8831C58.5448 56.7434 58.2117 56.5795 57.9001 56.3914C57.5885 56.2034 57.3172 55.9938 57.0861 55.7628L57.892 54.4893C57.9511 54.3926 58.0344 54.3147 58.1418 54.2556C58.2493 54.1965 58.3648 54.1669 58.4883 54.1669C58.6495 54.1669 58.8107 54.218 58.9719 54.3201C59.1384 54.4222 59.3238 54.535 59.5279 54.6586C59.7374 54.7822 59.9765 54.895 60.2451 54.9971C60.5137 55.0992 60.8307 55.1502 61.196 55.1502C61.6903 55.1502 62.0744 55.0428 62.3484 54.8278C62.6224 54.6075 62.7594 54.261 62.7594 53.7881C62.7594 53.5141 62.6842 53.2911 62.5338 53.1192C62.3833 52.9472 62.1846 52.8048 61.9374 52.692C61.6957 52.5792 61.419 52.4798 61.1074 52.3938C60.7958 52.3078 60.4761 52.2138 60.1484 52.1117C59.8207 52.0043 59.501 51.8753 59.1894 51.7248C58.8778 51.569 58.5985 51.3675 58.3513 51.1204C58.1096 50.8678 57.9135 50.5562 57.7631 50.1854C57.6126 49.8093 57.5374 49.3472 57.5374 48.7992C57.5374 48.3586 57.6261 47.9287 57.8034 47.5096C57.9807 47.0905 58.2412 46.7171 58.585 46.3893C58.9289 46.0616 59.3506 45.801 59.8503 45.6075C60.3499 45.4087 60.9221 45.3093 61.5667 45.3093C61.9267 45.3093 62.2759 45.3389 62.6144 45.398C62.9582 45.4517 63.2832 45.535 63.5895 45.6478C63.8957 45.7553 64.1804 45.8869 64.4437 46.0428C64.7123 46.1932 64.9514 46.3651 65.1609 46.5586L64.484 47.824ZM76.1688 45.4383V47.5983H72.8648V57.1813H70.141V47.5983H66.8369V45.4383H76.1688ZM89.3587 51.3057C89.3587 52.1547 89.2109 52.9445 88.9154 53.6753C88.6253 54.406 88.2143 55.0428 87.6825 55.5854C87.1506 56.1228 86.5086 56.5446 85.7564 56.8508C85.0097 57.1571 84.1796 57.3102 83.2663 57.3102C82.353 57.3102 81.5203 57.1571 80.7682 56.8508C80.016 56.5446 79.3713 56.1228 78.8341 55.5854C78.3022 55.0428 77.8885 54.406 77.593 53.6753C77.3029 52.9445 77.1579 52.1547 77.1579 51.3057C77.1579 50.4568 77.3029 49.6669 77.593 48.9362C77.8885 48.2054 78.3022 47.5714 78.8341 47.0341C79.3713 46.4968 80.016 46.075 80.7682 45.7687C81.5203 45.4625 82.353 45.3093 83.2663 45.3093C84.1796 45.3093 85.0097 45.4651 85.7564 45.7768C86.5086 46.0831 87.1506 46.5049 87.6825 47.0422C88.2143 47.5795 88.6253 48.2135 88.9154 48.9443C89.2109 49.675 89.3587 50.4622 89.3587 51.3057ZM86.5704 51.3057C86.5704 50.7254 86.4951 50.2043 86.3447 49.7422C86.1943 49.2747 85.9767 48.8798 85.692 48.5574C85.4126 48.235 85.0688 47.9878 84.6605 47.8159C84.2522 47.644 83.7874 47.558 83.2663 47.558C82.7398 47.558 82.2697 47.644 81.8561 47.8159C81.4478 47.9878 81.1012 48.235 80.8165 48.5574C80.5371 48.8798 80.3222 49.2747 80.1718 49.7422C80.0214 50.2043 79.9462 50.7254 79.9462 51.3057C79.9462 51.8914 80.0214 52.418 80.1718 52.8854C80.3222 53.3475 80.5371 53.7398 80.8165 54.0622C81.1012 54.3845 81.4478 54.6317 81.8561 54.8037C82.2697 54.9702 82.7398 55.0535 83.2663 55.0535C83.7874 55.0535 84.2522 54.9702 84.6605 54.8037C85.0688 54.6317 85.4126 54.3845 85.692 54.0622C85.9767 53.7398 86.1943 53.3475 86.3447 52.8854C86.4951 52.418 86.5704 51.8914 86.5704 51.3057ZM93.0624 45.4383C93.1806 45.4383 93.28 45.4437 93.3606 45.4544C93.4411 45.4651 93.5137 45.4866 93.5781 45.5189C93.6426 45.5457 93.7044 45.586 93.7635 45.6398C93.8226 45.6935 93.8897 45.766 93.965 45.8574L99.5415 52.9096C99.5201 52.684 99.5039 52.4663 99.4932 52.2568C99.4825 52.0419 99.4771 51.8404 99.4771 51.6523V45.4383H101.879V57.1813H100.46C100.251 57.1813 100.073 57.149 99.9284 57.0845C99.7833 57.0201 99.6436 56.9019 99.5093 56.7299L93.973 49.7341C93.9891 49.9383 94.0026 50.1398 94.0133 50.3386C94.0241 50.532 94.0294 50.7147 94.0294 50.8866V57.1813H91.628V45.4383H93.0624ZM112.336 45.4383V47.5338H107.517V50.2741H111.208V52.289H107.517V55.0857H112.336V57.1813H104.777V45.4383H112.336Z" fill="white"/>
</g>
<defs>
<clipPath id="clip0_94_3947">
<rect width="113" height="60" fill="white" transform="translate(0 0.226074)"/>
</clipPath>
</defs>
</svg>
