<svg width="113" height="60" viewBox="0 0 113 60" fill="none" xmlns="http://www.w3.org/2000/svg">
<path d="M1.04492 32.2159V40.5161H6.31975V35.0294L56.2548 6.04927L106.964 35.0998V40.6567H111.957V31.7235L56.2548 0L1.04492 32.2159Z" fill="#0B6085"/>
<path d="M54.3348 25.9746H46.2148V34.0957H54.3348V25.9746Z" fill="#FFCC00" stroke="#F4C507"/>
<path d="M65.87 25.9746H57.75V34.0957H65.87V25.9746Z" fill="#FFCC00" stroke="#F4C507"/>
<path d="M60.229 15.7051C63.3445 15.7051 65.8701 18.2311 65.8701 21.347V23.8261H57.75V15.7051H60.229Z" fill="#FFCC00" stroke="#F4C507"/>
<path d="M51.8559 15.7051C48.7404 15.7051 46.2148 18.2311 46.2148 21.347V23.8261H54.3349V15.7051H51.8559Z" fill="#FFCC00" stroke="#F4C507"/>
<path d="M6.97072 51.5875C7.07817 51.7916 7.18024 52.0039 7.27695 52.2242C7.37902 52.4445 7.47573 52.6701 7.56706 52.9012C7.65839 52.6648 7.75509 52.4364 7.85717 52.2161C7.95924 51.9904 8.06401 51.7728 8.17145 51.5633L11.1854 45.6313C11.2391 45.5293 11.2928 45.4513 11.3466 45.3976C11.4057 45.3385 11.4701 45.2955 11.54 45.2687C11.6098 45.2418 11.6877 45.2257 11.7737 45.2203C11.865 45.2149 11.9698 45.2122 12.088 45.2122H14.1671V56.9552H11.7656V50.2012C11.7656 49.8734 11.7817 49.5188 11.814 49.1373L8.70332 55.174C8.60662 55.3621 8.475 55.5045 8.30845 55.6012C8.14728 55.6979 7.96193 55.7463 7.75241 55.7463H7.38171C7.17218 55.7463 6.98415 55.6979 6.8176 55.6012C6.65643 55.5045 6.52749 55.3621 6.43079 55.174L3.30404 49.1293C3.32553 49.3173 3.34165 49.5054 3.35239 49.6934C3.36313 49.8761 3.36851 50.0454 3.36851 50.2012V56.9552H0.967033V45.2122H3.04616C3.16436 45.2122 3.26643 45.2149 3.35239 45.2203C3.44372 45.2257 3.52431 45.2418 3.59415 45.2687C3.66399 45.2955 3.72577 45.3385 3.7795 45.3976C3.83859 45.4513 3.895 45.5293 3.94873 45.6313L6.97072 51.5875ZM28.6639 51.0797C28.6639 51.9287 28.5161 52.7185 28.2206 53.4493C27.9305 54.18 27.5195 54.8167 26.9877 55.3594C26.4558 55.8967 25.8138 56.3185 25.0616 56.6248C24.3149 56.931 23.4848 57.0842 22.5715 57.0842C21.6582 57.0842 20.8255 56.931 20.0733 56.6248C19.3212 56.3185 18.6765 55.8967 18.1393 55.3594C17.6074 54.8167 17.1937 54.18 16.8982 53.4493C16.6081 52.7185 16.463 51.9287 16.463 51.0797C16.463 50.2307 16.6081 49.4409 16.8982 48.7101C17.1937 47.9794 17.6074 47.3454 18.1393 46.8081C18.6765 46.2707 19.3212 45.849 20.0733 45.5427C20.8255 45.2364 21.6582 45.0833 22.5715 45.0833C23.4848 45.0833 24.3149 45.2391 25.0616 45.5507C25.8138 45.857 26.4558 46.2788 26.9877 46.8161C27.5195 47.3534 27.9305 47.9875 28.2206 48.7182C28.5161 49.449 28.6639 50.2361 28.6639 51.0797ZM25.8756 51.0797C25.8756 50.4994 25.8004 49.9782 25.6499 49.5161C25.4995 49.0487 25.2819 48.6537 24.9972 48.3313C24.7178 48.009 24.374 47.7618 23.9657 47.5898C23.5574 47.4179 23.0926 47.3319 22.5715 47.3319C22.045 47.3319 21.5749 47.4179 21.1613 47.5898C20.753 47.7618 20.4064 48.009 20.1217 48.3313C19.8423 48.6537 19.6274 49.0487 19.477 49.5161C19.3266 49.9782 19.2514 50.4994 19.2514 51.0797C19.2514 51.6654 19.3266 52.1919 19.477 52.6594C19.6274 53.1215 19.8423 53.5137 20.1217 53.8361C20.4064 54.1585 20.753 54.4057 21.1613 54.5776C21.5749 54.7442 22.045 54.8275 22.5715 54.8275C23.0926 54.8275 23.5574 54.7442 23.9657 54.5776C24.374 54.4057 24.7178 54.1585 24.9972 53.8361C25.2819 53.5137 25.4995 53.1215 25.6499 52.6594C25.8004 52.1919 25.8756 51.6654 25.8756 51.0797ZM42.5215 51.0797C42.5215 51.9287 42.3737 52.7185 42.0783 53.4493C41.7882 54.18 41.3772 54.8167 40.8453 55.3594C40.3134 55.8967 39.6714 56.3185 38.9193 56.6248C38.1725 56.931 37.3425 57.0842 36.4292 57.0842C35.5158 57.0842 34.6831 56.931 33.931 56.6248C33.1788 56.3185 32.5342 55.8967 31.9969 55.3594C31.465 54.8167 31.0514 54.18 30.7559 53.4493C30.4658 52.7185 30.3207 51.9287 30.3207 51.0797C30.3207 50.2307 30.4658 49.4409 30.7559 48.7101C31.0514 47.9794 31.465 47.3454 31.9969 46.8081C32.5342 46.2707 33.1788 45.849 33.931 45.5427C34.6831 45.2364 35.5158 45.0833 36.4292 45.0833C37.3425 45.0833 38.1725 45.2391 38.9193 45.5507C39.6714 45.857 40.3134 46.2788 40.8453 46.8161C41.3772 47.3534 41.7882 47.9875 42.0783 48.7182C42.3737 49.449 42.5215 50.2361 42.5215 51.0797ZM39.7332 51.0797C39.7332 50.4994 39.658 49.9782 39.5076 49.5161C39.3571 49.0487 39.1395 48.6537 38.8548 48.3313C38.5754 48.009 38.2316 47.7618 37.8233 47.5898C37.415 47.4179 36.9503 47.3319 36.4292 47.3319C35.9027 47.3319 35.4326 47.4179 35.0189 47.5898C34.6106 47.7618 34.2641 48.009 33.9793 48.3313C33.7 48.6537 33.4851 49.0487 33.3346 49.5161C33.1842 49.9782 33.109 50.4994 33.109 51.0797C33.109 51.6654 33.1842 52.1919 33.3346 52.6594C33.4851 53.1215 33.7 53.5137 33.9793 53.8361C34.2641 54.1585 34.6106 54.4057 35.0189 54.5776C35.4326 54.7442 35.9027 54.8275 36.4292 54.8275C36.9503 54.8275 37.415 54.7442 37.8233 54.5776C38.2316 54.4057 38.5754 54.1585 38.8548 53.8361C39.1395 53.5137 39.3571 53.1215 39.5076 52.6594C39.658 52.1919 39.7332 51.6654 39.7332 51.0797ZM46.2254 45.2122C46.3436 45.2122 46.443 45.2176 46.5236 45.2284C46.6042 45.2391 46.6767 45.2606 46.7412 45.2928C46.8056 45.3197 46.8674 45.36 46.9265 45.4137C46.9856 45.4675 47.0528 45.54 47.128 45.6313L52.7046 52.6836C52.6831 52.4579 52.667 52.2403 52.6562 52.0307C52.6455 51.8158 52.6401 51.6143 52.6401 51.4263V45.2122H55.0416V56.9552H53.6232C53.4137 56.9552 53.2364 56.923 53.0914 56.8585C52.9463 56.794 52.8066 56.6758 52.6723 56.5039L47.136 49.5081C47.1522 49.7122 47.1656 49.9137 47.1763 50.1125C47.1871 50.306 47.1925 50.4887 47.1925 50.6606V56.9552H44.791V45.2122H46.2254ZM64.484 47.5979C64.4034 47.7269 64.3174 47.8236 64.2261 47.8881C64.1401 47.9525 64.0273 47.9848 63.8876 47.9848C63.7641 47.9848 63.6297 47.9472 63.4847 47.8719C63.345 47.7913 63.1838 47.7027 63.0012 47.606C62.8239 47.5093 62.6197 47.4233 62.3887 47.3481C62.1577 47.2675 61.8945 47.2272 61.599 47.2272C61.0886 47.2272 60.7071 47.3373 60.4546 47.5576C60.2075 47.7725 60.0839 48.0654 60.0839 48.4361C60.0839 48.6725 60.1592 48.8687 60.3096 49.0245C60.46 49.1803 60.6561 49.3146 60.8979 49.4275C61.145 49.5403 61.4244 49.6451 61.736 49.7418C62.0529 49.8331 62.3753 49.9379 62.703 50.0561C63.0307 50.169 63.3504 50.3033 63.662 50.4591C63.979 50.6149 64.2583 50.8137 64.5001 51.0555C64.7472 51.2973 64.946 51.5928 65.0964 51.9421C65.2468 52.286 65.3221 52.7024 65.3221 53.1913C65.3221 53.734 65.228 54.2418 65.04 54.7146C64.852 55.1875 64.578 55.6012 64.218 55.9558C63.8634 56.3051 63.4229 56.5818 62.8964 56.786C62.3753 56.9848 61.7816 57.0842 61.1155 57.0842C60.7501 57.0842 60.3767 57.0466 59.9953 56.9713C59.6192 56.8961 59.2539 56.7913 58.8993 56.657C58.5447 56.5173 58.2117 56.3534 57.9001 56.1654C57.5885 55.9773 57.3171 55.7678 57.0861 55.5367L57.892 54.2633C57.9511 54.1666 58.0344 54.0887 58.1418 54.0296C58.2493 53.9704 58.3648 53.9409 58.4883 53.9409C58.6495 53.9409 58.8107 53.9919 58.9719 54.094C59.1384 54.1961 59.3237 54.309 59.5279 54.4325C59.7374 54.5561 59.9765 54.669 60.2451 54.771C60.5137 54.8731 60.8307 54.9242 61.196 54.9242C61.6903 54.9242 62.0744 54.8167 62.3484 54.6018C62.6224 54.3815 62.7594 54.0349 62.7594 53.5621C62.7594 53.2881 62.6842 53.0651 62.5338 52.8931C62.3833 52.7212 62.1846 52.5788 61.9374 52.466C61.6957 52.3531 61.419 52.2537 61.1074 52.1678C60.7958 52.0818 60.4761 51.9878 60.1484 51.8857C59.8207 51.7782 59.501 51.6493 59.1894 51.4988C58.8778 51.343 58.5985 51.1415 58.3513 50.8943C58.1096 50.6418 57.9135 50.3301 57.7631 49.9594C57.6126 49.5833 57.5374 49.1212 57.5374 48.5731C57.5374 48.1325 57.6261 47.7027 57.8034 47.2836C57.9806 46.8645 58.2412 46.491 58.585 46.1633C58.9289 45.8355 59.3506 45.5749 59.8502 45.3815C60.3499 45.1827 60.922 45.0833 61.5667 45.0833C61.9267 45.0833 62.2759 45.1128 62.6144 45.1719C62.9582 45.2257 63.2832 45.309 63.5895 45.4218C63.8957 45.5293 64.1804 45.6609 64.4437 45.8167C64.7123 45.9672 64.9514 46.1391 65.1609 46.3325L64.484 47.5979ZM76.1688 45.2122V47.3722H72.8648V56.9552H70.1409V47.3722H66.8369V45.2122H76.1688ZM89.3586 51.0797C89.3586 51.9287 89.2109 52.7185 88.9154 53.4493C88.6253 54.18 88.2143 54.8167 87.6824 55.3594C87.1506 55.8967 86.5086 56.3185 85.7564 56.6248C85.0097 56.931 84.1796 57.0842 83.2663 57.0842C82.353 57.0842 81.5203 56.931 80.7681 56.6248C80.016 56.3185 79.3713 55.8967 78.8341 55.3594C78.3022 54.8167 77.8885 54.18 77.593 53.4493C77.3029 52.7185 77.1579 51.9287 77.1579 51.0797C77.1579 50.2307 77.3029 49.4409 77.593 48.7101C77.8885 47.9794 78.3022 47.3454 78.8341 46.8081C79.3713 46.2707 80.016 45.849 80.7681 45.5427C81.5203 45.2364 82.353 45.0833 83.2663 45.0833C84.1796 45.0833 85.0097 45.2391 85.7564 45.5507C86.5086 45.857 87.1506 46.2788 87.6824 46.8161C88.2143 47.3534 88.6253 47.9875 88.9154 48.7182C89.2109 49.449 89.3586 50.2361 89.3586 51.0797ZM86.5704 51.0797C86.5704 50.4994 86.4951 49.9782 86.3447 49.5161C86.1943 49.0487 85.9767 48.6537 85.692 48.3313C85.4126 48.009 85.0688 47.7618 84.6605 47.5898C84.2522 47.4179 83.7874 47.3319 83.2663 47.3319C82.7398 47.3319 82.2697 47.4179 81.8561 47.5898C81.4477 47.7618 81.1012 48.009 80.8165 48.3313C80.5371 48.6537 80.3222 49.0487 80.1718 49.5161C80.0214 49.9782 79.9462 50.4994 79.9462 51.0797C79.9462 51.6654 80.0214 52.1919 80.1718 52.6594C80.3222 53.1215 80.5371 53.5137 80.8165 53.8361C81.1012 54.1585 81.4477 54.4057 81.8561 54.5776C82.2697 54.7442 82.7398 54.8275 83.2663 54.8275C83.7874 54.8275 84.2522 54.7442 84.6605 54.5776C85.0688 54.4057 85.4126 54.1585 85.692 53.8361C85.9767 53.5137 86.1943 53.1215 86.3447 52.6594C86.4951 52.1919 86.5704 51.6654 86.5704 51.0797ZM93.0624 45.2122C93.1806 45.2122 93.28 45.2176 93.3606 45.2284C93.4411 45.2391 93.5137 45.2606 93.5781 45.2928C93.6426 45.3197 93.7044 45.36 93.7635 45.4137C93.8226 45.4675 93.8897 45.54 93.965 45.6313L99.5415 52.6836C99.52 52.4579 99.5039 52.2403 99.4932 52.0307C99.4824 51.8158 99.4771 51.6143 99.4771 51.4263V45.2122H101.879V56.9552H100.46C100.251 56.9552 100.073 56.923 99.9284 56.8585C99.7833 56.794 99.6436 56.6758 99.5093 56.5039L93.973 49.5081C93.9891 49.7122 94.0026 49.9137 94.0133 50.1125C94.0241 50.306 94.0294 50.4887 94.0294 50.6606V56.9552H91.628V45.2122H93.0624ZM112.336 45.2122V47.3078H107.517V50.0481H111.208V52.063H107.517V54.8597H112.336V56.9552H104.777V45.2122H112.336Z" fill="black"/>
</svg>
