<svg width="20" height="21" viewBox="0 0 20 21" fill="none" xmlns="http://www.w3.org/2000/svg">
<g clip-path="url(#clip0_156_1539)">
<path d="M17.5335 6.67661H8.73347C8.28903 6.67661 7.8668 6.80994 7.4668 7.07661C7.37792 6.40994 7.10014 5.8655 6.63347 5.44328C6.1668 5.02106 5.62236 4.80994 5.00014 4.80994C4.51125 4.80994 4.0668 4.92105 3.6668 5.14328V4.14328C3.6668 3.9655 3.61125 3.82106 3.50014 3.70994C3.38903 3.59883 3.24458 3.54328 3.0668 3.54328H0.600137C0.42236 3.54328 0.277915 3.59883 0.166804 3.70994C0.0556929 3.82106 0.000137329 3.9655 0.000137329 4.14328V16.6766C0.000137329 16.8544 0.0556929 16.9988 0.166804 17.1099C0.277915 17.2211 0.42236 17.2766 0.600137 17.2766H3.0668C3.24458 17.2766 3.38903 17.2211 3.50014 17.1099C3.61125 16.9988 3.6668 16.8544 3.6668 16.6766V14.7433H16.3335V16.6766C16.3335 16.8544 16.389 16.9988 16.5001 17.1099C16.6112 17.2211 16.7557 17.2766 16.9335 17.2766H19.4001C19.5779 17.2766 19.7224 17.2211 19.8335 17.1099C19.9446 16.9988 20.0001 16.8544 20.0001 16.6766V9.14328C20.0001 8.47661 19.7557 7.89883 19.2668 7.40994C18.7779 6.92105 18.2001 6.67661 17.5335 6.67661ZM5.00014 5.94328C5.35569 5.94328 5.65569 6.07661 5.90014 6.34328C6.14458 6.60994 6.2668 6.92105 6.2668 7.27661C6.2668 7.63217 6.14458 7.93217 5.90014 8.17661C5.65569 8.42105 5.35569 8.54328 5.00014 8.54328C4.64458 8.54328 4.33347 8.42105 4.0668 8.17661C3.80014 7.93217 3.6668 7.63217 3.6668 7.27661C3.6668 6.92105 3.80014 6.60994 4.0668 6.34328C4.33347 6.07661 4.64458 5.94328 5.00014 5.94328ZM3.6668 9.34328C4.0668 9.60994 4.50014 9.74328 4.9668 9.74328C5.43347 9.74328 5.8668 9.60994 6.2668 9.34328V11.0766H3.6668V9.34328ZM18.8001 16.0766H17.4668V14.1433C17.4668 14.0099 17.4112 13.8877 17.3001 13.7766C17.189 13.6655 17.0668 13.6099 16.9335 13.6099H3.0668C2.93347 13.6099 2.81125 13.6655 2.70014 13.7766C2.58903 13.8877 2.53347 14.0099 2.53347 14.1433V16.0766H1.20014V4.74328H2.53347V11.6766C2.53347 11.8099 2.58903 11.9433 2.70014 12.0766C2.81125 12.2099 2.93347 12.2766 3.0668 12.2766H18.8001V16.0766ZM18.8001 11.0766H7.4668V9.14328C7.4668 8.78772 7.58903 8.48772 7.83347 8.24328C8.07792 7.99883 8.37792 7.87661 8.73347 7.87661H17.5335C17.889 7.87661 18.189 7.99883 18.4335 8.24328C18.6779 8.48772 18.8001 8.78772 18.8001 9.14328V11.0766Z" fill="#1A1A1A"/>
</g>
<defs>
<clipPath id="clip0_156_1539">
<rect width="20" height="20" fill="white" transform="matrix(1 0 0 -1 0.000137329 20.4099)"/>
</clipPath>
</defs>
</svg>
