<svg width="24" height="24" viewBox="0 0 24 24" fill="none" xmlns="http://www.w3.org/2000/svg">
<path d="M12.0001 4C13.4154 4 14.7441 4.36884 15.8975 5.01367L14.8506 6.26953C13.9921 5.84158 13.0245 5.59961 12.0001 5.59961C8.46544 5.59961 5.59967 8.46538 5.59967 12C5.59967 15.5346 8.46544 18.4004 12.0001 18.4004C15.5347 18.4004 18.4005 15.5346 18.4005 12C18.4005 11.273 18.2771 10.5751 18.0538 9.92383L19.212 8.5332C19.7171 9.58203 20.0001 10.758 20.0001 12C20.0001 16.4183 16.4183 20 12.0001 20C7.58178 20 4.00006 16.4183 4.00006 12C4.00006 7.58172 7.58178 4 12.0001 4ZM18.585 4.28809C18.8679 3.9488 19.3726 3.90282 19.712 4.18555C20.0513 4.46832 20.0971 4.97211 19.8145 5.31152L11.8145 14.9121L11.1876 15.665L10.5753 14.8994L7.37506 10.8994C7.09945 10.5545 7.15543 10.0514 7.50006 9.77539C7.84503 9.4995 8.34906 9.55552 8.62506 9.90039L11.212 13.1348L18.585 4.28809Z" fill="#9FB3C8"/>
</svg>
