<svg width="21" height="21" viewBox="0 0 21 21" fill="none" xmlns="http://www.w3.org/2000/svg">
<g clip-path="url(#clip0_156_1546)">
<path d="M16.7672 19.2099H14.3672C14.2338 19.2099 14.1005 19.2766 13.9672 19.4099C13.8338 19.5432 13.7672 19.6877 13.7672 19.8432C13.7672 19.9988 13.8338 20.1321 13.9672 20.2432C14.1005 20.3544 14.2338 20.4099 14.3672 20.4099H16.7672C16.945 20.4099 17.0894 20.3544 17.2005 20.2432C17.3116 20.1321 17.3672 19.9988 17.3672 19.8432C17.3672 19.6877 17.3116 19.5432 17.2005 19.4099C17.0894 19.2766 16.945 19.2099 16.7672 19.2099ZM12.0338 19.2099H9.70051C9.52274 19.2099 9.37829 19.2766 9.26718 19.4099C9.15607 19.5432 9.10051 19.6877 9.10051 19.8432C9.10051 19.9988 9.15607 20.1321 9.26718 20.2432C9.37829 20.3544 9.52274 20.4099 9.70051 20.4099H12.0338C12.2116 20.4099 12.3561 20.3544 12.4672 20.2432C12.5783 20.1321 12.6338 19.9988 12.6338 19.8432C12.6338 19.6877 12.5783 19.5432 12.4672 19.4099C12.3561 19.2766 12.2116 19.2099 12.0338 19.2099ZM20.3005 8.60991C20.1672 8.60991 20.0338 8.66547 19.9005 8.77658C19.7672 8.88769 19.7005 9.03213 19.7005 9.20991V11.5432C19.7005 11.721 19.7672 11.8655 19.9005 11.9766C20.0338 12.0877 20.1783 12.1432 20.3338 12.1432C20.4894 12.1432 20.6227 12.0877 20.7338 11.9766C20.845 11.8655 20.9005 11.721 20.9005 11.5432V9.20991C20.9005 9.03213 20.845 8.88769 20.7338 8.77658C20.6227 8.66547 20.4783 8.60991 20.3005 8.60991ZM20.3005 13.2766C20.1672 13.2766 20.0338 13.3432 19.9005 13.4766C19.7672 13.6099 19.7005 13.7432 19.7005 13.8766V16.2099C19.7005 16.3877 19.7672 16.5321 19.9005 16.6432C20.0338 16.7544 20.1783 16.8099 20.3338 16.8099C20.4894 16.8099 20.6227 16.7544 20.7338 16.6432C20.845 16.5321 20.9005 16.3877 20.9005 16.2099V13.8766C20.9005 13.7432 20.845 13.6099 20.7338 13.4766C20.6227 13.3432 20.4783 13.2766 20.3005 13.2766ZM7.36718 19.2099H6.76718V18.6766C6.76718 18.4988 6.71162 18.3544 6.60051 18.2432C6.4894 18.1321 6.34496 18.0766 6.16718 18.0766C5.9894 18.0766 5.84496 18.1321 5.73385 18.2432C5.62274 18.3544 5.56718 18.4988 5.56718 18.6766V19.8099C5.56718 19.9877 5.62274 20.1321 5.73385 20.2432C5.84496 20.3544 5.9894 20.4099 6.16718 20.4099H7.36718C7.50051 20.4099 7.62274 20.3544 7.73385 20.2432C7.84496 20.1321 7.90051 19.9988 7.90051 19.8432C7.90051 19.6877 7.84496 19.5432 7.73385 19.4099C7.62274 19.2766 7.50051 19.2099 7.36718 19.2099ZM20.3005 5.07658H19.1672C18.9894 5.07658 18.845 5.13213 18.7338 5.24325C18.6227 5.35436 18.5672 5.4988 18.5672 5.67658C18.5672 5.85436 18.6227 5.9988 18.7338 6.10991C18.845 6.22102 18.9894 6.27658 19.1672 6.27658H19.7005V6.87658C19.7005 7.00991 19.7672 7.13213 19.9005 7.24325C20.0338 7.35436 20.1783 7.40991 20.3338 7.40991C20.4894 7.40991 20.6227 7.35436 20.7338 7.24325C20.845 7.13213 20.9005 7.00991 20.9005 6.87658V5.67658C20.9005 5.4988 20.845 5.35436 20.7338 5.24325C20.6227 5.13213 20.4783 5.07658 20.3005 5.07658ZM20.3005 18.0766C20.1672 18.0766 20.0338 18.1321 19.9005 18.2432C19.7672 18.3544 19.7005 18.4988 19.7005 18.6766V19.2099H19.1672C18.9894 19.2099 18.845 19.2766 18.7338 19.4099C18.6227 19.5432 18.5672 19.6877 18.5672 19.8432C18.5672 19.9988 18.6227 20.1321 18.7338 20.2432C18.845 20.3544 18.9894 20.4099 19.1672 20.4099H20.3005C20.4783 20.4099 20.6227 20.3544 20.7338 20.2432C20.845 20.1321 20.9005 19.9877 20.9005 19.8099V18.6766C20.9005 18.4988 20.845 18.3544 20.7338 18.2432C20.6227 18.1321 20.4783 18.0766 20.3005 18.0766ZM16.7672 5.07658H16.1672V1.00991C16.1672 0.832134 16.1005 0.687689 15.9672 0.576578C15.8338 0.465467 15.7005 0.40991 15.5672 0.40991H1.50051C1.32273 0.40991 1.17829 0.465467 1.06718 0.576578C0.956068 0.687689 0.900513 0.832134 0.900513 1.00991V15.0766C0.900513 15.2099 0.956068 15.3432 1.06718 15.4766C1.17829 15.6099 1.32273 15.6766 1.50051 15.6766H5.56718V16.2099C5.56718 16.3877 5.62274 16.5321 5.73385 16.6432C5.84496 16.7544 5.9894 16.8099 6.16718 16.8099C6.34496 16.8099 6.4894 16.7544 6.60051 16.6432C6.71162 16.5321 6.76718 16.3877 6.76718 16.2099V6.27658H16.7672C16.945 6.27658 17.0894 6.22102 17.2005 6.10991C17.3116 5.9988 17.3672 5.85436 17.3672 5.67658C17.3672 5.4988 17.3116 5.35436 17.2005 5.24325C17.0894 5.13213 16.945 5.07658 16.7672 5.07658ZM14.9672 5.07658H6.16718C5.9894 5.07658 5.84496 5.13213 5.73385 5.24325C5.62274 5.35436 5.56718 5.4988 5.56718 5.67658V14.4766H2.10051V1.60991H14.9672V5.07658Z" fill="#1A1A1A"/>
</g>
<defs>
<clipPath id="clip0_156_1546">
<rect width="20" height="20" fill="white" transform="matrix(1 0 0 -1 0.900513 20.4099)"/>
</clipPath>
</defs>
</svg>
