<svg width="21" height="21" viewBox="0 0 21 21" fill="none" xmlns="http://www.w3.org/2000/svg">
<g clip-path="url(#clip0_156_1543)">
<path d="M20.9493 10.5432C20.9493 10.0544 20.7827 9.64324 20.4493 9.30991C20.116 8.97658 19.7049 8.80991 19.216 8.80991H4.08267V3.40991C4.08267 2.96547 4.23823 2.58769 4.54934 2.27658C4.77156 2.05435 5.02712 1.92102 5.31601 1.87658C5.6049 1.83213 5.9049 1.85435 6.21601 1.94324C5.81601 2.56546 5.66045 3.25435 5.74934 4.00991C5.83823 4.76546 6.14934 5.40991 6.68267 5.94324L6.81601 6.14324C6.94934 6.23213 7.09379 6.27658 7.24934 6.27658C7.4049 6.27658 7.52712 6.23213 7.61601 6.14324L11.416 2.34324C11.5493 2.20991 11.616 2.06546 11.616 1.90991C11.616 1.75435 11.5493 1.60991 11.416 1.47658L11.2827 1.34324C10.7049 0.765465 10.0049 0.454353 9.18267 0.409908C8.36045 0.365465 7.63823 0.587687 7.01601 1.07658C6.48267 0.765465 5.9049 0.643242 5.28267 0.709909C4.66045 0.776575 4.12712 1.03213 3.68267 1.47658C3.14934 2.00991 2.88267 2.65435 2.88267 3.40991V8.80991H2.68267C2.19379 8.80991 1.78267 8.97658 1.44934 9.30991C1.11601 9.64324 0.949341 10.0544 0.949341 10.5432C0.949341 10.9432 1.06045 11.2877 1.28267 11.5766C1.5049 11.8655 1.77156 12.0766 2.08267 12.2099V13.4766C2.08267 14.5432 2.37156 15.521 2.94934 16.4099C3.52712 17.2988 4.26045 17.9877 5.14934 18.4766L4.61601 19.5432C4.52712 19.721 4.51601 19.8766 4.58267 20.0099C4.64934 20.1432 4.74934 20.2544 4.88267 20.3432C5.01601 20.4321 5.16045 20.4432 5.31601 20.3766C5.47156 20.3099 5.59379 20.2099 5.68267 20.0766L6.28267 18.8766C6.72712 18.9655 7.19379 19.0099 7.68267 19.0099H14.216C14.7049 19.0099 15.1716 18.9655 15.616 18.8766L16.216 20.0766C16.3049 20.2099 16.4271 20.3099 16.5827 20.3766C16.7382 20.4432 16.8827 20.4321 17.016 20.3432C17.1493 20.2544 17.2493 20.1432 17.316 20.0099C17.3827 19.8766 17.3716 19.721 17.2827 19.5432L16.7493 18.4766C17.6382 17.9877 18.3716 17.2988 18.9493 16.4099C19.5271 15.521 19.816 14.5432 19.816 13.4766V12.2099C20.1271 12.0766 20.3938 11.8655 20.616 11.5766C20.8382 11.2877 20.9493 10.9432 20.9493 10.5432ZM10.1493 1.94324L7.28267 4.87658C6.97156 4.43213 6.83823 3.96547 6.88267 3.47658C6.92712 2.98769 7.12712 2.56546 7.48267 2.20991C7.83823 1.85435 8.27156 1.65435 8.78267 1.60991C9.29379 1.56546 9.74934 1.67658 10.1493 1.94324ZM2.68267 10.0099H19.216C19.3493 10.0099 19.4716 10.0655 19.5827 10.1766C19.6938 10.2877 19.7493 10.421 19.7493 10.5766C19.7493 10.7321 19.6938 10.8655 19.5827 10.9766C19.4716 11.0877 19.3493 11.1432 19.216 11.1432H2.68267C2.54934 11.1432 2.42712 11.0877 2.31601 10.9766C2.2049 10.8655 2.14934 10.7321 2.14934 10.5766C2.14934 10.421 2.2049 10.2877 2.31601 10.1766C2.42712 10.0655 2.54934 10.0099 2.68267 10.0099ZM18.616 13.4766C18.616 14.2766 18.416 15.0099 18.016 15.6766C17.616 16.3432 17.0827 16.8766 16.416 17.2766C15.7493 17.6766 15.016 17.8766 14.216 17.8766H7.68267C6.88267 17.8766 6.14934 17.6766 5.48267 17.2766C4.81601 16.8766 4.28267 16.3432 3.88267 15.6766C3.48267 15.0099 3.28267 14.2766 3.28267 13.4766V12.3432H18.616V13.4766ZM9.41601 6.34324C9.41601 6.52102 9.47156 6.66547 9.58267 6.77658C9.69379 6.88769 9.82712 6.94324 9.98267 6.94324C10.1382 6.94324 10.2716 6.88769 10.3827 6.77658C10.4938 6.66547 10.5493 6.52102 10.5493 6.34324C10.5493 6.16547 10.4938 6.02102 10.3827 5.90991C10.2716 5.7988 10.1382 5.74324 9.98267 5.74324C9.82712 5.74324 9.69379 5.7988 9.58267 5.90991C9.47156 6.02102 9.41601 6.16547 9.41601 6.34324ZM11.0827 4.67658C11.0827 4.85435 11.1382 4.9988 11.2493 5.10991C11.3605 5.22102 11.4938 5.27658 11.6493 5.27658C11.8049 5.27658 11.9382 5.22102 12.0493 5.10991C12.1605 4.9988 12.216 4.85435 12.216 4.67658C12.216 4.4988 12.1605 4.35435 12.0493 4.24324C11.9382 4.13213 11.8049 4.07658 11.6493 4.07658C11.4938 4.07658 11.3605 4.13213 11.2493 4.24324C11.1382 4.35435 11.0827 4.4988 11.0827 4.67658ZM11.4827 6.74324C11.4827 6.87658 11.5382 7.00991 11.6493 7.14324C11.7605 7.27658 11.8938 7.34324 12.0493 7.34324C12.2049 7.34324 12.3382 7.27658 12.4493 7.14324C12.5605 7.00991 12.616 6.86547 12.616 6.70991C12.616 6.55435 12.5605 6.42102 12.4493 6.30991C12.3382 6.1988 12.2049 6.14324 12.0493 6.14324C11.8938 6.14324 11.7605 6.1988 11.6493 6.30991C11.5382 6.42102 11.4827 6.56546 11.4827 6.74324Z" fill="#1A1A1A"/>
</g>
<defs>
<clipPath id="clip0_156_1543">
<rect width="20" height="20" fill="white" transform="matrix(1 0 0 -1 0.949341 20.4099)"/>
</clipPath>
</defs>
</svg>
